<?xml version="1.0" standalone="no"?>
<!DOCTYPE svg PUBLIC "-//W3C//DTD SVG 20010904//EN"
 "http://www.w3.org/TR/2001/REC-SVG-20010904/DTD/svg10.dtd">
<svg version="1.0" xmlns="http://www.w3.org/2000/svg"
 width="612.000000pt" height="459.000000pt" viewBox="0 0 612.000000 459.000000"
 preserveAspectRatio="xMidYMid meet">

<g transform="translate(0.000000,459.000000) scale(0.100000,-0.100000)"
fill="#000000" stroke="none">
<path d="M3326 4548 c5 -24 9 -93 9 -154 l0 -112 30 14 c48 24 90 47 95 54 3
3 31 21 64 40 51 29 63 32 90 23 43 -14 148 -14 165 0 17 14 123 16 134 2 6
-7 10 -6 14 3 2 6 12 12 22 12 20 0 81 76 81 102 0 11 5 28 10 39 10 19 3 19
-356 19 l-367 0 9 -42z"/>
<path d="M2689 4047 c-98 -59 -194 -175 -309 -377 -5 -8 -29 -49 -54 -91 -54
-89 -85 -163 -131 -309 -47 -149 -65 -244 -75 -395 -5 -71 -16 -168 -24 -215
-8 -48 -15 -122 -16 -165 -1 -44 -9 -129 -18 -190 -23 -154 -22 -557 2 -710
10 -60 26 -171 36 -245 11 -74 24 -155 30 -180 6 -25 9 -70 6 -100 -4 -30 -9
-117 -12 -192 -3 -76 -9 -138 -13 -138 -4 0 -5 26 -3 58 3 54 2 56 -13 37
l-16 -20 9 20 c5 11 12 40 15 65 6 42 6 43 -6 16 l-12 -28 0 40 c0 23 3 35 7
29 5 -7 8 -1 8 16 0 15 -4 27 -9 27 -5 0 -8 33 -6 73 2 39 1 64 -2 55 -2 -10
-13 -18 -24 -18 -10 0 -18 3 -17 8 6 16 -25 72 -42 77 -10 3 -28 21 -39 40
-11 19 -25 35 -31 35 -5 0 -10 18 -10 40 l0 40 -41 0 c-38 0 -40 1 -37 28 3
25 0 27 -39 30 -24 2 -43 7 -43 13 0 5 -18 9 -40 9 -33 0 -40 3 -40 20 0 17
-7 20 -40 20 -33 0 -40 3 -40 20 0 17 -7 20 -40 20 -33 0 -40 3 -40 20 0 17 7
20 40 20 22 0 40 5 40 10 0 6 -18 10 -40 10 -22 0 -40 5 -40 10 0 6 -18 10
-40 10 -33 0 -40 -3 -40 -20 0 -11 -7 -20 -15 -20 -11 0 -15 11 -15 38 0 37
-22 82 -41 82 -5 0 -9 -9 -9 -20 0 -11 -7 -20 -15 -20 -11 0 -15 11 -15 40 0
36 -2 40 -25 40 -18 0 -25 5 -25 20 0 18 -10 25 -32 21 -5 0 -8 8 -8 19 0 13
-7 20 -20 20 -11 0 -20 5 -20 10 0 6 -18 10 -40 10 -22 0 -40 5 -40 10 0 15
-77 12 -83 -2 -3 -9 -13 -5 -31 11 -34 32 -33 41 4 41 23 0 30 4 30 20 0 17
-7 20 -40 20 -33 0 -40 -3 -40 -20 0 -16 -7 -20 -30 -20 -28 0 -30 2 -30 40
l0 40 -130 0 c-123 0 -130 1 -130 20 0 17 -7 20 -40 20 -33 0 -40 3 -40 20 0
18 -7 20 -80 20 -73 0 -80 -2 -80 -20 0 -18 -7 -20 -80 -20 -73 0 -80 -2 -80
-20 0 -17 -7 -20 -40 -20 -29 0 -40 4 -40 15 0 11 -11 15 -40 15 -36 0 -40 -2
-40 -25 0 -22 -4 -25 -40 -25 l-40 0 0 -965 0 -965 2378 0 2379 0 26 164 26
165 50 46 c28 26 64 55 81 64 117 63 162 204 145 456 -8 125 -7 178 6 235 9
37 32 181 54 335 9 60 35 282 41 349 5 66 -9 272 -25 346 -5 25 -12 34 -24 32
-15 -2 -15 0 -2 25 26 52 38 161 28 258 l-10 90 -1 -107 c-1 -76 -5 -115 -17
-137 -10 -20 -11 -31 -5 -31 6 0 4 -7 -4 -16 -9 -8 -16 -22 -16 -30 0 -23 -49
-37 -82 -23 -15 6 -28 15 -28 19 0 5 -18 11 -40 15 -22 4 -38 11 -35 15 9 14
-15 22 -30 10 -10 -8 -14 -8 -17 4 -3 14 -6 14 -32 1 -37 -19 -46 -19 -46 3 0
14 -2 14 -9 3 -12 -19 -45 -6 -37 15 4 9 1 23 -5 30 -8 9 -8 14 -1 14 7 0 8
10 1 33 -9 29 -11 88 -8 242 2 91 -12 230 -25 250 -7 11 -13 38 -14 59 -3 87
-9 37 -15 -124 -6 -154 -18 -247 -49 -393 -13 -63 -4 -108 29 -138 51 -47 119
-165 152 -265 30 -88 33 -108 29 -184 -4 -96 -12 -118 -34 -99 -10 8 -14 8
-14 0 0 -6 -5 -11 -10 -11 -6 0 -9 3 -9 8 4 22 -3 30 -23 24 -11 -3 -19 -1
-16 4 7 11 -56 17 -190 18 -56 1 -102 4 -102 7 0 7 -111 11 -317 13 -68 1
-123 -2 -123 -6 0 -5 -7 -8 -15 -8 -8 0 -15 -6 -15 -12 0 -9 -4 -8 -10 2 -7
11 -4 16 11 20 11 3 -51 5 -138 4 -165 -1 -440 10 -521 21 -92 12 -162 24
-171 30 -5 3 -12 1 -16 -4 -3 -6 -37 -7 -83 -4 -42 4 -98 5 -124 4 -25 -1 -49
3 -53 9 -5 8 -11 7 -21 -1 -10 -8 -18 -9 -27 0 -8 6 -17 8 -20 5 -4 -4 -34 0
-68 7 -44 10 -63 19 -67 32 -3 10 -11 16 -18 13 -8 -3 -14 1 -14 9 0 8 -5 15
-11 15 -8 0 -8 4 -1 13 7 8 8 26 2 50 -4 21 -4 37 1 37 5 0 9 7 9 15 0 8 6 15
13 15 8 0 7 3 -3 10 -12 8 -12 10 3 16 9 3 15 10 12 14 -3 4 2 10 10 14 8 3
15 16 15 30 0 14 7 31 15 40 8 8 15 30 15 49 0 20 6 38 13 40 7 3 5 6 -5 6
-21 1 -13 31 8 31 8 0 13 3 12 8 -3 17 17 44 45 58 16 9 111 47 211 85 169 66
337 146 352 170 15 25 -14 30 -72 13 -32 -9 -66 -20 -74 -25 -8 -4 -28 -11
-44 -14 -22 -5 -26 -9 -16 -15 9 -5 5 -8 -13 -7 -14 1 -23 5 -20 10 6 10 -25
9 -45 -2 -29 -15 -87 -18 -85 -3 2 8 -9 12 -31 12 -21 0 -36 6 -40 15 -3 8
-12 15 -21 15 -8 0 -15 5 -15 10 0 6 -8 10 -17 10 -15 0 -16 2 -3 10 8 5 11
10 6 10 -5 0 -3 7 4 15 10 13 10 19 -4 33 -21 24 -20 42 2 43 12 0 11 3 -6 10
-13 5 -26 18 -29 29 -3 11 -12 20 -20 20 -12 0 -13 3 -4 14 9 10 8 16 -4 26
-16 14 -21 55 -5 45 6 -3 10 -1 10 4 0 6 -5 11 -11 11 -7 0 -9 10 -5 28 4 17
3 22 -2 13 -12 -17 -23 0 -12 19 9 14 2 41 -12 51 -20 14 -29 191 -15 306 3
24 1 45 -4 48 -5 4 -9 18 -9 32 0 30 -33 88 -55 97 -8 3 -15 15 -15 27 0 19
-2 20 -17 8 -15 -12 -16 -12 -10 3 3 10 2 28 -3 40 -8 21 -9 20 -9 -9 -1 -21
-8 -37 -23 -47 -20 -14 -21 -20 -13 -108 11 -127 10 -135 -9 -203 -28 -97 -46
-213 -51 -330 -10 -192 -25 -298 -53 -350 -8 -16 -16 -51 -18 -76 -2 -47 -26
-89 -52 -89 -7 0 -15 -7 -18 -15 -8 -19 -24 -19 -24 0 0 8 -4 15 -10 15 -14 0
-13 -23 2 -38 7 -7 19 -12 28 -12 9 0 23 -12 30 -27 15 -31 19 -73 8 -73 -66
-1 -70 0 -59 14 9 11 7 15 -9 19 -12 3 -20 13 -20 25 0 12 -5 24 -11 27 -6 4
-8 13 -5 20 3 8 -2 11 -15 8 -14 -4 -19 0 -19 15 0 12 -5 24 -10 27 -6 4 -10
18 -10 33 0 15 -1 67 -2 115 -1 63 2 91 11 97 11 6 11 9 0 13 -9 4 -10 8 -4
14 6 4 11 55 13 112 1 70 6 107 14 113 10 6 10 10 0 20 -15 15 -16 74 -2 83 6
4 8 10 5 15 -3 5 -1 12 5 15 8 5 8 11 0 20 -7 8 -7 21 0 39 5 14 11 55 12 91
2 36 6 65 9 65 7 0 20 76 23 137 1 23 9 50 17 60 23 26 30 51 16 57 -8 3 -9 7
-1 13 9 7 20 28 29 53 9 27 19 40 31 40 10 0 13 7 9 23 -4 16 4 32 28 57 45
48 66 58 111 55 l39 -4 -6 47 c-3 29 -1 56 7 71 8 13 11 33 9 45 -3 15 -2 17
5 8 7 -10 9 -4 10 20 2 61 3 68 16 68 7 0 21 16 32 35 10 19 22 35 26 35 5 0
8 5 8 10 0 14 -9 11 -51 -13z m-73 -1589 c-13 -146 -18 -173 -32 -189 -8 -9
-30 -45 -49 -80 -54 -101 -42 -37 34 181 22 63 40 125 41 138 0 12 3 22 6 22
3 0 3 -33 0 -72z m-196 -258 c0 -4 -6 -10 -14 -13 -10 -4 -12 0 -9 14 5 18 23
18 23 -1z m2603 -7 c-7 -2 -19 -2 -25 0 -7 3 -2 5 12 5 14 0 19 -2 13 -5z
m-118 -22 c22 -3 38 -10 35 -16 -3 -5 6 -11 20 -13 33 -4 71 -23 65 -33 -3 -4
8 -10 25 -14 28 -6 43 -25 20 -25 -5 0 -10 -4 -10 -10 0 -5 9 -9 19 -7 11 1
20 -2 20 -8 0 -5 -9 -9 -20 -8 -10 2 -19 -2 -19 -7 0 -6 4 -10 8 -10 9 0 47
-62 44 -72 -1 -5 3 -8 8 -8 6 0 10 -4 10 -10 0 -5 -7 -10 -15 -10 -9 0 -12 -6
-8 -16 3 -9 0 -20 -8 -26 -10 -7 -8 -8 9 -5 27 6 30 -13 2 -20 -24 -6 -27 -23
-4 -23 14 0 14 -3 4 -15 -7 -8 -9 -15 -4 -15 5 0 3 -4 -5 -9 -8 -5 -10 -14 -5
-22 12 -20 12 -49 0 -49 -6 0 -4 -5 4 -10 12 -8 11 -10 -6 -10 -30 0 -36 -11
-16 -26 12 -9 14 -16 6 -24 -8 -8 -20 -3 -44 20 -17 16 -36 30 -42 30 -5 0 -6
5 -3 10 3 6 -3 23 -14 39 -12 16 -21 33 -21 38 0 6 -9 18 -20 28 -11 10 -20
26 -20 37 0 10 -4 18 -9 18 -5 0 -12 19 -16 43 -9 60 -25 108 -35 102 -4 -2
-10 13 -14 35 -3 22 -11 39 -17 37 -6 -1 -17 14 -24 33 -10 31 -10 36 9 52 12
10 28 15 36 11 8 -3 33 -9 55 -12z m-2492 -43 c-6 -7 -10 -25 -9 -40 1 -16 -2
-28 -6 -28 -4 0 -5 -6 -2 -14 3 -8 1 -17 -5 -21 -6 -3 -11 -16 -11 -28 -1 -31
-31 -67 -63 -72 -20 -4 -27 -1 -27 10 0 8 6 15 13 16 9 0 9 2 0 6 -13 5 -8 47
7 68 4 6 7 28 5 50 -1 22 0 34 2 26 3 -7 8 -9 12 -4 7 10 71 42 85 43 5 0 4
-6 -1 -12z m990 -335 c-7 -2 -21 -2 -30 0 -10 3 -4 5 12 5 17 0 24 -2 18 -5z
m-904 -147 c1 -12 -3 -16 -8 -10 -13 14 -22 60 -13 68 7 8 19 -25 21 -58z
m2361 38 c0 -2 -9 0 -20 6 -11 6 -20 13 -20 16 0 2 9 0 20 -6 11 -6 20 -13 20
-16z m-2380 -107 c0 -20 6 -46 12 -57 10 -16 10 -26 -1 -52 -8 -18 -21 -65
-29 -105 -13 -57 -14 -79 -5 -105 7 -18 14 -60 18 -93 l6 -60 -21 38 c-33 60
-43 139 -31 242 6 49 13 129 17 178 6 76 8 85 20 70 7 -10 14 -35 14 -56z
m2127 41 c-3 -8 -6 -5 -6 6 -1 11 2 17 5 13 3 -3 4 -12 1 -19z m-1300 -14 c-3
-3 -12 -4 -19 -1 -8 3 -5 6 6 6 11 1 17 -2 13 -5z m186 -1 c-13 -2 -35 -2 -50
0 -16 2 -5 4 22 4 28 0 40 -2 28 -4z m230 0 c-7 -2 -21 -2 -30 0 -10 3 -4 5
12 5 17 0 24 -2 18 -5z m70 0 c-7 -2 -21 -2 -30 0 -10 3 -4 5 12 5 17 0 24 -2
18 -5z m156 -9 c8 -8 -105 -2 -124 5 -11 5 10 6 50 3 39 -2 72 -6 74 -8z m192
-12 c-30 -2 -58 0 -62 5 -4 4 20 6 54 3 l62 -5 -54 -3z m212 1 c-29 -2 -77 -2
-105 0 -29 2 -6 3 52 3 58 0 81 -1 53 -3z m180 -10 c-7 -2 -21 -2 -30 0 -10 3
-4 5 12 5 17 0 24 -2 18 -5z m-1117 -66 c4 -4 -7 -7 -25 -7 -18 0 -30 4 -27 8
6 10 42 9 52 -1z m640 -14 c-10 -10 -46 -11 -52 -1 -3 4 9 8 27 8 18 0 29 -3
25 -7z m804 -27 c0 -3 -4 -8 -10 -11 -5 -3 -10 -1 -10 4 0 6 5 11 10 11 6 0
10 -2 10 -4z m-47 -63 c-7 -2 -21 -2 -30 0 -10 3 -4 5 12 5 17 0 24 -2 18 -5z
m0 -20 c-7 -2 -21 -2 -30 0 -10 3 -4 5 12 5 17 0 24 -2 18 -5z m-516 -29 c-3
-3 -12 -4 -19 -1 -8 3 -5 6 6 6 11 1 17 -2 13 -5z m-567 -22 c0 -5 -7 -9 -15
-9 -8 0 -12 4 -9 9 3 4 9 8 15 8 5 0 9 -4 9 -8z m1095 -160 c-3 -3 -11 0 -18
7 -9 10 -8 11 6 5 10 -3 15 -9 12 -12z m-1658 2 c-3 -3 -12 -4 -19 -1 -8 3 -5
6 6 6 11 1 17 -2 13 -5z m1113 -27 c33 -4 33 -4 -7 -5 -35 -2 -43 1 -43 16 0
11 3 13 8 5 4 -6 23 -13 42 -16z m-2200 -93 c0 -8 -4 -12 -10 -9 -5 3 -10 10
-10 16 0 5 5 9 10 9 6 0 10 -7 10 -16z m2940 -4 c24 -8 24 -8 -5 -8 -16 0 -39
3 -50 8 -18 8 -18 9 5 8 14 0 36 -4 50 -8z m-178 -84 c-5 -19 -6 -19 -13 0 -4
10 -8 33 -7 49 l0 30 12 -29 c8 -16 11 -38 8 -50z m120 64 c110 -22 108 -21
63 -36 l-40 -13 37 6 c33 4 36 3 42 -24 6 -30 1 -142 -7 -150 -3 -2 -2 -17 2
-31 3 -15 6 -40 6 -57 0 -38 -29 -45 -56 -13 l-21 23 31 12 c32 14 42 33 16
33 -8 0 -15 6 -15 14 0 7 -9 25 -20 39 -11 14 -20 30 -20 37 0 6 -11 26 -24
43 -24 32 -50 107 -38 107 4 0 0 5 -8 10 -19 12 -13 12 52 0z m-2503 -257 c31
-137 31 -207 0 -152 -15 27 -15 27 -25 127 -8 84 8 100 25 25z m-362 -65 c-3
-8 -6 -5 -6 6 -1 11 2 17 5 13 3 -3 4 -12 1 -19z m25 -84 c-4 -7 -8 15 -8 49
l-2 62 9 -49 c4 -28 5 -55 1 -62z m2937 15 c-12 -53 -23 -74 -72 -132 -40 -49
-75 -60 -69 -22 6 32 -19 2 -48 -57 -32 -66 -53 -75 -48 -22 2 32 7 40 26 42
16 3 21 8 18 20 -3 9 -1 24 4 32 5 8 10 11 10 7 0 -5 7 -1 16 8 11 11 19 13
23 6 5 -8 17 -7 39 1 30 12 43 28 22 28 -17 0 0 27 26 41 l25 13 -22 16 -21
17 27 21 c43 34 54 29 44 -19z m-2906 -32 c3 -8 -1 -14 -9 -14 -8 0 -14 6 -14
14 0 7 4 13 9 13 5 0 11 -6 14 -13z m2797 -37 c0 -35 -23 -41 -40 -10 -13 25
-5 40 21 40 14 0 19 -7 19 -30z m-85 -20 c-5 -8 -11 -8 -17 -2 -6 6 -7 16 -3
22 5 8 11 8 17 2 6 -6 7 -16 3 -22z m-2629 -38 c11 -7 0 -3 -23 9 -23 12 -45
29 -48 37 -3 8 7 4 24 -10 15 -12 37 -29 47 -36z m2504 5 c0 -2 -12 -14 -27
-28 l-28 -24 24 28 c23 25 31 32 31 24z m-2419 -41 c19 -13 55 -30 79 -37 25
-7 48 -17 52 -23 4 -6 12 -5 21 2 21 18 27 -25 25 -182 l-1 -131 -7 128 c-5
95 -10 131 -21 138 -10 6 -10 9 -1 9 6 0 12 5 12 10 0 6 -7 10 -15 10 -8 0
-15 -4 -15 -10 0 -5 -5 -10 -11 -10 -6 0 -9 7 -6 15 8 19 -13 31 -24 14 -7
-11 -9 -11 -9 3 0 15 -51 42 -77 41 -7 0 -11 4 -10 10 1 7 -8 13 -20 15 -13 2
-23 8 -23 13 0 14 13 11 51 -15z m169 14 c0 -5 -2 -10 -4 -10 -3 0 -8 5 -11
10 -3 6 -1 10 4 10 6 0 11 -4 11 -10z m2347 -12 c-3 -8 -6 -5 -6 6 -1 11 2 17
5 13 3 -3 4 -12 1 -19z m-2577 8 c0 -3 -4 -8 -10 -11 -5 -3 -10 -1 -10 4 0 6
5 11 10 11 6 0 10 -2 10 -4z"/>
<path d="M2640 3755 c0 -34 -4 -45 -15 -45 -14 0 -13 -3 1 -25 9 -14 21 -25
28 -24 7 0 7 2 -1 5 -9 4 -10 24 -6 70 3 35 3 64 -1 64 -3 0 -6 -20 -6 -45z"/>
<path d="M2655 3700 c-3 -5 1 -10 9 -10 9 0 16 5 16 10 0 6 -4 10 -9 10 -6 0
-13 -4 -16 -10z"/>
<path d="M2580 3671 c0 -6 5 -13 10 -16 6 -3 10 1 10 9 0 9 -4 16 -10 16 -5 0
-10 -4 -10 -9z"/>
<path d="M2608 3633 c7 -3 16 -2 19 1 4 3 -2 6 -13 5 -11 0 -14 -3 -6 -6z"/>
<path d="M2601 3594 c0 -11 3 -14 6 -6 3 7 2 16 -1 19 -3 4 -6 -2 -5 -13z"/>
<path d="M2590 3560 c0 -5 5 -10 10 -10 6 0 10 5 10 10 0 6 -4 10 -10 10 -5 0
-10 -4 -10 -10z"/>
<path d="M2382 3386 c7 -8 15 -12 17 -11 5 6 -10 25 -20 25 -5 0 -4 -6 3 -14z"/>
<path d="M4714 3252 c-27 -18 -36 -58 -35 -155 1 -55 4 -103 7 -106 3 -3 4 38
3 92 -1 53 3 103 8 110 10 13 34 67 30 67 -1 0 -7 -4 -13 -8z"/>
<path d="M5142 2615 c0 -16 2 -22 5 -12 2 9 2 23 0 30 -3 6 -5 -1 -5 -18z"/>
<path d="M3980 2612 c-47 -6 -52 -10 -40 -33 18 -33 56 -47 580 -218 86 -29
94 -29 98 -7 2 11 0 16 -7 12 -6 -4 -11 0 -11 8 0 9 -9 16 -20 16 -11 0 -20 5
-20 12 0 6 -3 8 -6 5 -4 -4 -1 -13 6 -22 8 -10 9 -15 1 -15 -6 0 -11 5 -11 11
0 6 -9 9 -20 6 -11 -3 -25 2 -32 12 -11 14 -11 14 2 4 10 -8 21 -9 30 -3 13 8
12 10 -3 10 -11 0 -17 6 -15 16 2 10 -3 19 -9 21 -7 3 -13 -1 -13 -9 0 -8 -3
-9 -8 -3 -11 16 -60 45 -74 45 -7 0 -29 8 -48 18 -19 11 -41 17 -49 14 -9 -3
-11 0 -6 8 6 10 4 12 -8 7 -9 -3 -19 -2 -23 4 -3 6 -12 8 -20 5 -8 -3 -14 -1
-14 4 0 6 -11 10 -24 10 -13 0 -49 11 -80 25 -65 29 -120 42 -156 37z m607
-254 c-3 -8 -6 -5 -6 6 -1 11 2 17 5 13 3 -3 4 -12 1 -19z"/>
<path d="M3643 2464 c-8 -18 -8 -24 0 -24 7 0 6 -4 -2 -9 -10 -7 -7 -9 11 -8
26 2 27 6 12 44 l-9 22 -12 -25z"/>
<path d="M1120 1890 c0 -13 7 -20 20 -20 23 0 26 10 8 28 -18 18 -28 15 -28
-8z"/>
<path d="M1440 1650 c0 -13 7 -20 20 -20 23 0 26 10 8 28 -18 18 -28 15 -28
-8z"/>
</g>
</svg>
